<svg viewBox="0 0 800 600" xmlns="http://www.w3.org/2000/svg" xmlns:xlink="http://www.w3.org/1999/xlink" xmlns:serif="http://www.serif.com/" style="fill-rule:evenodd;clip-rule:evenodd;stroke-linecap:round;stroke-linejoin:round;"><g><g><path d="M533.083 301.361V183.065c-.011-10.542-5.658-20.311-14.787-25.581L414.787 98.336c-9.139-5.277-20.435-5.277-29.574.0l-103.509 59.148c-9.129 5.27-14.776 15.039-14.787 25.581v118.296c.011 10.542 5.658 20.31 14.787 25.581l103.509 59.148c9.139 5.277 20.435 5.277 29.574.0l103.509-59.148c9.129-5.271 14.776-15.039 14.787-25.581z" style="fill:none;fill-rule:nonzero;stroke:#000;stroke-width:29.57px;"/><path d="M333.459 127.022 4e2 165.469l66.541-38.447" style="fill:none;fill-rule:nonzero;stroke:#000;stroke-width:29.57px;stroke-linecap:butt;"/><path d="M333.459 357.404v-76.745l-66.542-38.446" style="fill:none;fill-rule:nonzero;stroke:#000;stroke-width:29.57px;stroke-linecap:butt;"/><path d="M270.91 167.687 4e2 242.361l129.09-74.674" style="fill:none;fill-rule:nonzero;stroke:#000;stroke-width:29.57px;stroke-linecap:butt;"/><path d="M4e2 391.266V242.213" style="fill:none;fill-rule:nonzero;stroke:#000;stroke-width:29.57px;stroke-linecap:butt;"/><path d="M454.321 227.276l24.84-14.192 39.277 99.232-24.286 13.876-3.416-8.993-35.124 20.067-3.415 12.897-37.154 21.227 39.278-144.114zm27.721 68.074-10.466-31.116-9.877 43.194 20.343-12.078z" style="fill-rule:nonzero;"/></g><g><path d="M258.198 452.25c.29-.765 1.023-1.271 1.842-1.271 2.571.0 8.093.0 10.389.0.622.0 1.179.385 1.4.966 2.353 6.204 15.351 40.471 18.931 49.911.207.546.133 1.159-.199 1.64s-.879.768-1.463.768H275.55c-.392.0-.743-.245-.878-.613-.474-1.293-1.532-4.181-1.532-4.181h-16.138s-.917 2.503-1.426 3.891c-.199.542-.715.903-1.292.903-2.743.0-10.635.0-14.123.0-.384.0-.743-.189-.961-.505-.218-.316-.267-.719-.131-1.078 3.008-7.931 16.41-43.262 19.129-50.431zm11.338 35.477-4.465-14.809-4.443 14.809h8.908z" style="fill-rule:nonzero;"/><path d="M310.574 450.979c-.457.0-.896.182-1.22.505-.323.324-.505.763-.505 1.22.0 7.681.0 38.817.0 48.602.0.784.312 1.537.866 2.091.555.555 1.307.867 2.092.867 7.192.0 25.502.0 32.278.0 1.42.0 2.572-1.152 2.572-2.573.0-2.614.0-6.626.0-9.13.0-1.258-1.02-2.278-2.278-2.278-5.258.0-17.795.0-17.795.0v-37.154c0-1.187-.963-2.15-2.15-2.15-3.559.0-10.603.0-13.86.0z" style="fill-rule:nonzero;"/><path d="M358.858 477.661c0-3.834.733-7.456 2.197-10.864 1.465-3.409 3.462-6.378 5.992-8.908 2.529-2.53 5.499-4.527 8.907-5.991 3.409-1.465 7.03-2.197 10.865-2.197 3.834.0 7.456.732 10.864 2.197 3.409 1.464 6.378 3.461 8.908 5.991 2.529 2.53 4.527 5.499 5.991 8.908 1.465 3.408 2.197 7.03 2.197 10.864.0 3.835-.732 7.456-2.197 10.865-1.464 3.408-3.462 6.377-5.991 8.907-2.53 2.53-5.499 4.527-8.908 5.992-3.408 1.464-7.03 2.197-10.864 2.197-3.835.0-7.456-.733-10.865-2.197-3.408-1.465-6.378-3.462-8.907-5.992-2.53-2.53-4.527-5.499-5.992-8.907-1.464-3.409-2.197-7.03-2.197-10.865zm16.777.0c0 1.545.292 2.996.878 4.354s1.385 2.543 2.397 3.555 2.197 1.811 3.555 2.397c1.358.585 2.809.878 4.354.878 1.544.0 2.995-.293 4.354-.878 1.358-.586 2.543-1.385 3.554-2.397 1.012-1.012 1.811-2.197 2.397-3.555s.879-2.809.879-4.354c0-1.544-.293-2.996-.879-4.354s-1.385-2.543-2.397-3.555c-1.011-1.011-2.196-1.81-3.554-2.396-1.359-.586-2.81-.879-4.354-.879-1.545.0-2.996.293-4.354.879s-2.543 1.385-3.555 2.396c-1.012 1.012-1.811 2.197-2.397 3.555s-.878 2.81-.878 4.354z" style="fill-rule:nonzero;"/><path d="M469.984 467.859c-.465.662-1.37.839-2.052.402-.708-.455-1.519-.82-2.425-1.105-1.438-.453-2.849-.679-4.234-.679-1.544.0-2.956.28-4.234.839-1.278.559-2.383 1.331-3.315 2.317-.932.985-1.664 2.17-2.197 3.555-.533 1.384-.799 2.875-.799 4.473s.293 3.089.879 4.474 1.385 2.57 2.397 3.555c1.011.985 2.196 1.757 3.554 2.317 1.359.559 2.81.838 4.354.838 1.811.0 3.462-.386 4.953-1.158 1.158-.599 2.187-1.367 3.088-2.303.138-.147.175-.361.096-.546-.08-.184-.262-.304-.463-.304-.675-.003-1.542-.003-2.264-.003-.376.0-.736-.149-1.001-.414s-.414-.625-.414-1c0-2.22.0-6.483.0-8.566.0-.319.127-.625.352-.851.226-.226.532-.353.852-.353 3.626.0 14.421.0 18.09.0.683.0 1.237.554 1.237 1.237.0 3.517.0 13.478.0 15.942.0.371-.098.735-.285 1.055-1.166 1.987-2.535 3.805-4.109 5.453-1.704 1.784-3.608 3.315-5.712 4.593s-4.381 2.264-6.83 2.956c-2.45.692-4.98 1.039-7.59 1.039-3.834.0-7.456-.719-10.864-2.157-3.409-1.438-6.378-3.409-8.908-5.912-2.529-2.503-4.527-5.459-5.991-8.867-1.465-3.409-2.197-7.084-2.197-11.025.0-3.834.692-7.456 2.077-10.864 1.385-3.409 3.289-6.378 5.712-8.908 2.423-2.53 5.299-4.527 8.628-5.991 3.328-1.465 6.91-2.197 10.744-2.197 2.983.0 5.566.293 7.749.879 2.184.585 4.021 1.251 5.513 1.997 1.18.572 2.229 1.181 3.145 1.825.707.512.872 1.497.369 2.212-1.83 2.611-6.063 8.628-7.905 11.245z" style="fill-rule:nonzero;"/><path d="M505.61 477.661c0-3.834.733-7.456 2.197-10.864 1.465-3.409 3.462-6.378 5.992-8.908 2.53-2.53 5.499-4.527 8.907-5.991 3.409-1.465 7.03-2.197 10.865-2.197 3.834.0 7.456.732 10.864 2.197 3.409 1.464 6.378 3.461 8.908 5.991s4.527 5.499 5.991 8.908c1.465 3.408 2.197 7.03 2.197 10.864.0 3.835-.732 7.456-2.197 10.865-1.464 3.408-3.461 6.377-5.991 8.907s-5.499 4.527-8.908 5.992c-3.408 1.464-7.03 2.197-10.864 2.197-3.835.0-7.456-.733-10.865-2.197-3.408-1.465-6.377-3.462-8.907-5.992-2.53-2.53-4.527-5.499-5.992-8.907-1.464-3.409-2.197-7.03-2.197-10.865zm16.777.0c0 1.545.293 2.996.878 4.354.586 1.358 1.385 2.543 2.397 3.555 1.012 1.012 2.197 1.811 3.555 2.397 1.358.585 2.809.878 4.354.878 1.544.0 2.996-.293 4.354-.878 1.358-.586 2.543-1.385 3.555-2.397s1.81-2.197 2.396-3.555.879-2.809.879-4.354c0-1.544-.293-2.996-.879-4.354s-1.384-2.543-2.396-3.555c-1.012-1.011-2.197-1.81-3.555-2.396s-2.81-.879-4.354-.879c-1.545.0-2.996.293-4.354.879-1.358.586-2.543 1.385-3.555 2.396-1.012 1.012-1.811 2.197-2.397 3.555-.585 1.358-.878 2.81-.878 4.354z" style="fill-rule:nonzero;"/></g></g></svg>